<?xml version="1.0" encoding="UTF-8"?>
<svg width="100" height="100" version="1.1" viewBox="0 0 100 100" xmlns="http://www.w3.org/2000/svg">
 <g fill-rule="evenodd">
  <circle cx="50" cy="50" r="47.5" fill="#0c4996"/>
  <path d="m49.947 0a50 50 0 0 0-49.947 50 50 50 0 0 0 50 50 50 50 0 0 0 50-50 50 50 0 0 0-50-50 50 50 0 0 0-0.052734 0zm-0.12109 5a45 45 0 0 1 0.17383 0 45 45 0 0 1 18.779 4.1074l-4.2871 0.85742c-4.2735-2.4785-9.2111-3.9648-14.492-3.9648s-10.219 1.4863-14.492 3.9648l-4.2891-0.85938a45 45 0 0 1 18.607-4.1055zm-39.99 24.709c0.072291 0.079476 0.1382 0.16358 0.21484 0.24024 1.0338 1.0335 2.3518 1.5469 3.7109 1.7891l-8.4043 12.607a45 45 0 0 1 4.4785-14.637zm80.33 0a45 45 0 0 1 4.4766 14.635l-8.4043-12.605c1.3591-0.24213 2.6772-0.75552 3.7109-1.7891 0.076953-0.07697 0.14423-0.16042 0.2168-0.24024zm-73.336 22.666-3.4707 10.41c-1.208 3.6222 0.8037 7.6471 4.4258 8.8555 3.6222 1.208 7.6471-0.8037 8.8555-4.4258l1.3594-4.0781v21.863c0 2.517 1.3861 4.7516 3.4219 5.9863a45 45 0 0 1-26.123-35.814c0.25494 0.23349 0.52326 0.4556 0.81836 0.65234 3.1772 2.118 7.5888 1.2357 9.707-1.9414l1.0059-1.5078zm66.34 0 1.0059 1.5078c2.1182 3.1771 6.5298 4.0595 9.707 1.9414 0.29589-0.19727 0.5648-0.42009 0.82031-0.6543a45 45 0 0 1-26.121 35.814c2.0337-1.2352 3.418-3.4689 3.418-5.9844v-21.863l1.3594 4.0781c1.2084 3.6221 5.2333 5.6338 8.8555 4.4258 3.6221-1.2084 5.6338-5.2333 4.4258-8.8555l-3.4707-10.41zm-42.08 35.85 1.543 6.168a45 45 0 0 1-9.3984-2.6328c0.56642 0.1516 1.1564 0.24023 1.7656 0.24023 2.6411 0 4.9001-1.5735 6.0898-3.7754zm17.82 0c1.1896 2.202 3.4488 3.7754 6.0898 3.7754 0.61067 0 1.2019-0.089872 1.7695-0.24219a45 45 0 0 1-9.4023 2.6348l1.543-6.168z" fill="#fff"/>
  <path d="m50 10c-5.1149 0-9.8689 1.5398-13.83 4.1758l-10.582-2.1172a3.0003 3.0003 0 0 0-0.57812-0.058594 3.0003 3.0003 0 0 0-2.1309 0.87891l-10 10a3 3 0 0 0 0 4.2422 3 3 0 0 0 4.2422 0l8.8652-8.8652 4.6523 0.92969c-2.4188 2.9578-4.1688 6.4809-5.0312 10.34l-6.7207 2.6895a3.0003 3.0003 0 0 0-1.3828 1.1211l-10 15a3 3 0 0 0 0.83203 4.1602 3 3 0 0 0 4.1602-0.83203l9.4824-14.225 3.0527-1.2207c0.14496 3.0203 0.82533 5.8987 1.9492 8.5449l-3.7812 2.8359a3.0003 3.0003 0 0 0-1.0449 1.4512l-5 15a3 3 0 0 0 1.8965 3.7949 3 3 0 0 0 3.7949-1.8965l4.7031-14.111 2.4512-1.8379c1.422 1.8929 3.1071 3.578 5 5l-2.4004 3.1992a3.0003 3.0003 0 0 0-0.59961 1.8008v25a3 3 0 0 0 3 3 3 3 0 0 0 3-3v-24l0.30664-0.4082 8.7832 35.137a3.0003 3.0003 0 0 0 5.8203 0l8.7832-35.137 0.30664 0.4082v24a3 3 0 0 0 3 3 3 3 0 0 0 3-3v-25a3.0003 3.0003 0 0 0-0.59961-1.8008l-2.4004-3.1992c1.8929-1.422 3.578-3.1071 5-5l2.4512 1.8379 4.7031 14.111a3 3 0 0 0 3.7949 1.8965 3 3 0 0 0 1.8965-3.7949l-5-15a3.0003 3.0003 0 0 0-1.0449-1.4512l-3.7812-2.8359c1.1239-2.6462 1.8043-5.5246 1.9492-8.5449l3.0527 1.2207 9.4824 14.225a3 3 0 0 0 4.1602 0.83203 3 3 0 0 0 0.83203-4.1602l-10-15a3.0003 3.0003 0 0 0-1.3828-1.1211l-6.7207-2.6895c-0.8624-3.8589-2.6124-7.382-5.0312-10.34l4.6523-0.92969 8.8652 8.8652a3 3 0 0 0 4.2422 0 3 3 0 0 0 0-4.2422l-10-10a3.0003 3.0003 0 0 0-2.0957-0.87891 3.0003 3.0003 0 0 0-0.61328 0.058594l-10.582 2.1172c-3.9612-2.636-8.7152-4.1758-13.83-4.1758z" color="#000000" color-rendering="auto" dominant-baseline="auto" fill="#1d83dc" image-rendering="auto" shape-rendering="auto" solid-color="#000000" stop-color="#000000" style="font-feature-settings:normal;font-variant-alternates:normal;font-variant-caps:normal;font-variant-east-asian:normal;font-variant-ligatures:normal;font-variant-numeric:normal;font-variant-position:normal;font-variation-settings:normal;inline-size:0;isolation:auto;mix-blend-mode:normal;shape-margin:0;shape-padding:0;text-decoration-color:#000000;text-decoration-line:none;text-decoration-style:solid;text-indent:0;text-orientation:mixed;text-transform:none;white-space:normal"/>
 </g>
</svg>
