<?xml version="1.0" encoding="UTF-8"?>
<svg width="100" height="100" version="1.1" viewBox="0 0 100 100" xmlns="http://www.w3.org/2000/svg">
 <circle cx="50" cy="50" r="47.5" fill="#0c4996"/>
 <path d="m50-1e-6a50 50 0 0 0-50 50 50 50 0 0 0 50 50 50 50 0 0 0 50-50 50 50 0 0 0-50-50zm0 5a45 45 0 0 1 17.15 3.4121l-4.0215 0.80469c-4.0668-2.0715-8.5476-3.2152-13.127-3.2168-0.0065-1.6e-5 -0.01302-1.6e-5 -0.01953 0-4.5505 0.0204-9.0003 1.1671-13.039 3.2305l-3.875-0.77539a45 45 0 0 1 16.932-3.4551zm40.627 25.684a45 45 0 0 1 3.6348 11.287l-6.3672-9.5527c0.99722-0.38099 1.934-0.94497 2.7324-1.7344zm-81.203 0.04492c0.78764 0.7643 1.7047 1.3162 2.6816 1.6895l-6.2832 9.4258a45 45 0 0 1 3.6016-11.115zm85.078 25.879a45 45 0 0 1-22.879 32.84c0.86694-1.2775 1.377-2.8097 1.377-4.4473v-16.449c1.7674 3.433 5.771 5.2936 9.5312 4.0391 4.1471-1.3826 6.442-5.9743 5.0586-10.121l-1.9258-5.7773c2.6013 1.6602 6.0702 1.7669 8.7734-0.03516 0.0227-0.01511 0.042-0.03352 0.0645-0.04883zm-88.98 0.01953c0.01405 0.0095 0.02689 0.01988 0.04102 0.0293 2.7032 1.8021 6.1722 1.6954 8.7734 0.03516l-1.9258 5.7773c-1.3834 4.1468 0.9115 8.7385 5.0586 10.121 3.7603 1.2545 7.7638-0.60604 9.5312-4.0391v16.449c0 1.5823 0.48067 3.0635 1.2949 4.3144a45 45 0 0 1-22.773-32.688zm37.479 26.988c1.4356 2.7175 4.2559 4.3828 7 4.3828s5.5644-1.6653 7-4.3828v1.3848c0 3.9098 2.9055 7.2188 6.6465 7.875a45 45 0 0 1-13.646 2.125 45 45 0 0 1-13.607-2.1309c3.7223-0.67224 6.6074-3.9729 6.6074-7.8691z" fill="#fff"/>
 <path d="m50 10c-4.3982 0.01972-8.7133 1.1994-12.51 3.4199l-11.705-2.3418c-1.3115-0.26239-2.6674 0.14804-3.6133 1.0938l-10 10c-1.5617 1.562-1.5617 4.0942 0 5.6562 1.562 1.5617 4.0942 1.5617 5.6562 0l8.4863-8.4863 3.7031 0.74023c-1.9593 2.6179-3.3859 5.5946-4.1992 8.7617l-7.084 2.3613c-0.84359 0.28153-1.5693 0.83613-2.0625 1.5762l-10 15c-1.2253 1.8381-0.72865 4.3215 1.1094 5.5469 1.8381 1.2253 4.3215 0.72865 5.5469-1.1094l9.2383-13.857 2.6113-0.87109c0.23421 2.3146 0.79036 4.5852 1.6523 6.7461l-3.8887 2.334c-0.8184 0.49112-1.4342 1.2587-1.7363 2.1641l-5 15c-0.69923 2.0959 0.43326 4.3618 2.5293 5.0606 2.0959 0.69923 4.3617-0.43326 5.0605-2.5293l4.5312-13.598 2.5879-1.5527c1.1255 1.3129 2.3842 2.5055 3.7559 3.5586l-2.498 2.498c-0.75014 0.75005-1.1717 1.7673-1.1719 2.8281v25c0 2.2091 1.7909 4 4 4s4-1.7909 4-4v-23.344l1.2441-1.2441 5.9102 20.688c1.1072 3.8649 6.5842 3.8649 7.6914 0l5.9102-20.688 1.2441 1.2441v23.344c0 2.2091 1.7909 4 4 4s4-1.7909 4-4v-25c-2e-4 -1.0608-0.42173-2.0781-1.1719-2.8281l-2.498-2.498c1.3717-1.0531 2.6304-2.2457 3.7559-3.5586l2.5879 1.5527 4.5312 13.598c0.6988 2.096 2.9646 3.2285 5.0606 2.5293 2.096-0.6988 3.2285-2.9646 2.5293-5.0606l-5-15c-0.30208-0.90539-0.91792-1.6729-1.7363-2.1641l-3.8887-2.334c0.86199-2.1609 1.4181-4.4315 1.6524-6.7461l2.6113 0.87109 9.2383 13.857c1.2254 1.838 3.7088 2.3347 5.5469 1.1094 1.838-1.2254 2.3347-3.7088 1.1094-5.5469l-10-15c-0.49319-0.74004-1.2189-1.2946-2.0625-1.5762l-7.0332-2.3438c-0.80413-3.1767-2.225-6.1644-4.1816-8.793l3.6348-0.72656 8.4863 8.4863c1.562 1.5617 4.0942 1.5617 5.6562 0 1.5617-1.562 1.5617-4.0942 0-5.6562l-10-10c-0.94585-0.9457-2.3018-1.3561-3.6133-1.0938l-11.629 2.3262c-3.8203-2.228-8.1634-3.4028-12.586-3.4043z" fill="#1d83dc"/>
</svg>
