<?xml version="1.0" encoding="UTF-8" standalone="no"?>
<svg
   width="100"
   height="25"
   version="1.1"
   viewBox="0 0 100 25"
   id="svg12"
   sodipodi:docname="logo_text.svg"
   inkscape:version="1.1.2 (b8e25be833, 2022-02-05)"
   xmlns:inkscape="http://www.inkscape.org/namespaces/inkscape"
   xmlns:sodipodi="http://sodipodi.sourceforge.net/DTD/sodipodi-0.dtd"
   xmlns="http://www.w3.org/2000/svg"
   xmlns:svg="http://www.w3.org/2000/svg">
  <defs
     id="defs16" />
  <sodipodi:namedview
     id="namedview14"
     pagecolor="#ffffff"
     bordercolor="#666666"
     borderopacity="1.0"
     inkscape:pageshadow="2"
     inkscape:pageopacity="0.0"
     inkscape:pagecheckerboard="0"
     showgrid="true"
     inkscape:object-paths="true"
     inkscape:snap-bbox="true"
     inkscape:bbox-paths="true"
     inkscape:bbox-nodes="true"
     inkscape:snap-smooth-nodes="true"
     inkscape:zoom="6.8583333"
     inkscape:cx="67.800729"
     inkscape:cy="25.151883"
     inkscape:window-width="1920"
     inkscape:window-height="1010"
     inkscape:window-x="-6"
     inkscape:window-y="-6"
     inkscape:window-maximized="1"
     inkscape:current-layer="svg12">
    <inkscape:grid
       type="xygrid"
       id="grid4833" />
  </sodipodi:namedview>
  <path
     id="path28243"
     style="color:#000000;fill:#ffffff;stroke-width:4;stroke-linecap:round;stroke-linejoin:round;-inkscape-stroke:none"
     d="M 70,2 C 68.366837,2 67,3.366837 67,5 V 9.5332 C 66.010989,8.04662 64.402894,7 62.5,7 59.889198,7 57.782324,8.8957 57.234375,11.35156 57.179725,11.19473 57.208925,11.00026 57.144535,10.8457 56.575444,9.47989 55.516108,8.32053 54.109379,7.69531 52.798268,7.1126 51.435297,7 50,7 48.827214,7 47.990576,7.80643 47.5,8.80859 47.009424,7.80643 46.172786,7 45,7 43.728704,7 42.521598,7.14121 41.349609,7.56641 40.918246,7.32349 40.521512,7 40,7 38.827214,7 37.990576,7.80643 37.5,8.80859 37.45015,8.70677 37.43176,8.59526 37.371094,8.5 37.666152,8.03671 38,7.57954 38,7 38,5.36684 36.633163,4 35,4 33.366837,4 32,5.36684 32,7 32,7.57954 32.333848,8.03671 32.628906,8.5 32.333848,8.96329 32,9.42046 32,10 v 0.62305 C 31.410137,9.3638 30.431548,8.28295 29.109375,7.69531 27.798272,7.1126 26.435297,7 25,7 23.827332,7.00012 22.990569,7.80654 22.5,8.80859 22.45015,8.70677 22.43176,8.59526 22.371094,8.5 22.666152,8.03671 23,7.57954 23,7 23,5.36684 21.633163,4 20,4 19.205259,4 18.485146,4.342751 17.943359,4.863281 17.861989,3.34442 16.65749,2.06509 15.123047,2.001953 13.947769,1.954123 12.841595,2.607663 12.316406,3.660156 L 10,8.29102 7.6835938,3.658203 C 7.0653149,2.423283 5.6523895,1.763426 4.3085938,2.082031 2.9665976,2.399988 2.0006934,3.618899 2,4.998047 V 5 20 c 0,1.63316 1.3668367,3 3,3 1.6331633,0 3,-1.36684 3,-3 v -2.94727 c 1.12991,1.02465 2.87009,1.02465 4,0 V 20 c 0,1.63316 1.366837,3 3,3 1.172786,0 2.009424,-0.80643 2.5,-1.80859 C 17.990576,22.19357 18.827214,23 20,23 21.172786,23 22.009424,22.19357 22.5,21.19141 22.990576,22.19357 23.827214,23 25,23 26.172786,23 27.009424,22.19357 27.5,21.19141 27.990576,22.19357 28.827214,23 30,23 31.172786,23 32.009424,22.19357 32.5,21.19141 32.990576,22.19357 33.827214,23 35,23 c 1.183385,0 2.02668,-0.81933 2.511719,-1.83594 0.172391,0.37241 0.195865,0.82277 0.486328,1.07813 0.596607,0.52449 1.311963,0.74414 2.001953,0.74414 0.68999,0 1.405346,-0.21965 2.001953,-0.74414 C 42.59856,21.71769 42.988316,20.85354 43,20.02734 v -0.002 c 3e-6,-0.002 3e-6,-0.004 0,-0.006 3e-6,-0.002 3e-6,-0.004 0,-0.006 v -0.002 c 3e-6,-0.002 3e-6,-0.004 0,-0.006 3e-6,-0.002 3e-6,-0.004 0,-0.006 0,-3.96457 0.28698,-6.56482 0.392578,-6.82812 C 43.458773,13.15058 44.006266,13 45,13 c 1.172786,0 2.009424,-0.80643 2.5,-1.80859 0.241772,0.49389 0.503267,0.86142 0.960938,1.16211 C 47.578036,13.33068 47,14.59257 47,16 v 1.5 c 0,3.01691 2.483085,5.5 5.5,5.5 0.444302,0 0.81441,-0.2165 1.230469,-0.31836 0.392015,0.18611 0.814553,0.31606 1.259765,0.31836 0.0033,10e-6 0.0065,10e-6 0.0098,0 1.522137,0 2.710439,-1.22924 2.878906,-2.71289 C 58.84791,21.87556 60.519691,23 62.5,23 c 1.978762,0 3.649674,-1.12258 4.619141,-2.70898 0.08729,0.73074 0.353356,1.48914 0.878906,1.95117 0.596607,0.52449 1.311963,0.74414 2.001953,0.74414 0.68999,0 1.405346,-0.21965 2.001953,-0.74414 0.290463,-0.25536 0.313937,-0.70572 0.486328,-1.07813 C 72.97332,22.18067 73.816615,23 75,23 76.172786,23 77.009424,22.19357 77.5,21.19141 77.990576,22.19357 78.827214,23 80,23 81.172786,23 82.009424,22.19357 82.5,21.19141 82.990576,22.19357 83.827214,23 85,23 86.522137,23 87.710439,21.77076 87.878906,20.28711 88.84791,21.87556 90.519691,23 92.5,23 95.516915,23 98,20.51691 98,17.5 V 17 C 98,16.42046 97.666152,15.96329 97.371094,15.5 97.666136,15.03676 97.999942,14.57948 98,14 V 12.5 C 98,9.48309 95.516915,7 92.5,7 89.900213,7 87.799823,8.87985 87.240234,11.32031 87.187114,11.17155 87.205884,10.99296 87.144534,10.8457 86.575443,9.47989 85.516107,8.32053 84.109378,7.69531 82.798269,7.1126 81.435297,7 80,7 c -1.632999,1.6e-4 -2.999837,1.367 -3,3 v 0.62305 C 76.410137,9.3638 75.431548,8.28295 74.109375,7.69531 73.659584,7.4954 73.392608,7.56717 73,7.49609 V 5 C 73,3.366837 71.633163,2 70,2 Z"
     sodipodi:nodetypes="sscsccsscscsccssscscscccssccccccscsssccsscscscscscssscsssssccsccssscsccscssscscscscsssccssccscccscss" />
  <path
     style="fill:none;stroke:#1d83dc;stroke-width:2;stroke-linecap:round;stroke-linejoin:round;stroke-miterlimit:4;stroke-dasharray:none;stroke-opacity:1"
     d="M 5,20 V 5 l 5,10 5,-10 v 15"
     id="path14200" />
  <path
     style="fill:none;stroke:#1d83dc;stroke-width:2;stroke-linecap:round;stroke-linejoin:miter;stroke-miterlimit:4;stroke-dasharray:none;stroke-opacity:1"
     d="M 20,10 V 20"
     id="path14268" />
  <circle
     style="fill:#1d83dc;fill-opacity:1;fill-rule:evenodd;stroke:none;stroke-width:2;stroke-linecap:round;stroke-linejoin:round;stroke-miterlimit:4;stroke-dasharray:none;stroke-opacity:1"
     id="path14325"
     cx="20"
     cy="7"
     r="1" />
  <path
     style="fill:none;stroke:#1d83dc;stroke-width:2;stroke-linecap:round;stroke-linejoin:round;stroke-miterlimit:4;stroke-dasharray:none;stroke-opacity:1"
     d="M 25,20 V 10 c 5,0 5,2 5,10"
     id="path14404"
     sodipodi:nodetypes="ccc" />
  <path
     style="fill:none;stroke:#1d83dc;stroke-width:2;stroke-linecap:round;stroke-linejoin:miter;stroke-miterlimit:4;stroke-dasharray:none;stroke-opacity:1"
     d="M 35,10 V 20"
     id="path14951" />
  <circle
     style="fill:#1d83dc;fill-opacity:1;fill-rule:evenodd;stroke:none;stroke-width:2;stroke-linecap:round;stroke-linejoin:round;stroke-miterlimit:4;stroke-dasharray:none;stroke-opacity:1"
     id="circle14953"
     cx="35"
     cy="7"
     r="1" />
  <path
     style="fill:none;stroke:#1d83dc;stroke-width:2;stroke-linecap:round;stroke-linejoin:round;stroke-miterlimit:4;stroke-dasharray:none;stroke-opacity:1"
     d="m 40,10 v 10 c 0,-8 0,-10 5,-10"
     id="path14988"
     sodipodi:nodetypes="ccc" />
  <path
     style="fill:none;stroke:#1d83dc;stroke-width:2;stroke-linecap:round;stroke-linejoin:round;stroke-miterlimit:4;stroke-dasharray:none;stroke-opacity:1"
     d="m 50,10 c 5,0 5,2 5,10"
     id="path15578"
     sodipodi:nodetypes="cc" />
  <path
     id="circle16145"
     style="fill:none;fill-rule:evenodd;stroke:#1d83dc;stroke-width:2;stroke-linecap:round;stroke-linejoin:round;stroke-opacity:1"
     d="M 52.5,13.5 C 51.119288,13.5 50,14.61929 50,16 v 1.5 c 0,1.38071 1.119288,2.5 2.5,2.5 1.380712,0 2.5,-1.11929 2.5,-2.5 V 16 c 0,-1.38071 -1.119288,-2.5 -2.5,-2.5 z"
     sodipodi:nodetypes="sssssss" />
  <path
     id="path21072"
     style="fill:none;fill-rule:evenodd;stroke:#1d83dc;stroke-width:2;stroke-linecap:round;stroke-linejoin:round;stroke-opacity:1"
     d="M 65,12.5 C 65,11.11929 63.880712,10 62.5,10 61.119288,10 60,11.11929 60,12.5 v 5 c 0,1.38071 1.119288,2.5 2.5,2.5 1.380712,0 2.5,-1.11929 2.5,-2.5"
     sodipodi:nodetypes="cssssc" />
  <path
     style="fill:none;stroke:#1d83dc;stroke-width:2;stroke-linecap:round;stroke-linejoin:round;stroke-miterlimit:4;stroke-dasharray:none;stroke-opacity:1"
     d="M 70,5 V 20 10 c 5,0 5,2 5,10"
     id="path21656"
     sodipodi:nodetypes="cccc" />
  <path
     style="fill:none;stroke:#1d83dc;stroke-width:2;stroke-linecap:round;stroke-linejoin:round;stroke-miterlimit:4;stroke-dasharray:none;stroke-opacity:1"
     d="M 80,20 V 10 c 5,0 5,2 5,10"
     id="path22061"
     sodipodi:nodetypes="ccc" />
  <path
     id="path22063"
     style="fill:none;fill-rule:evenodd;stroke:#1d83dc;stroke-width:2;stroke-linecap:round;stroke-linejoin:round;stroke-opacity:1"
     d="m 90,14 h 5 V 12.5 C 95,11.11929 93.880712,10 92.5,10 91.119288,10 90,11.11929 90,12.5 v 5 c 0,1.38071 1.119288,2.5 2.5,2.5 1.380712,0 2.5,-1.11929 2.5,-2.5 V 17"
     sodipodi:nodetypes="ccssssssc" />
</svg>
