<?xml version="1.0" encoding="UTF-8"?>
<svg width="100" height="120" version="1.1" viewBox="0 0 100 120" xmlns="http://www.w3.org/2000/svg">
 <path d="m70 97c-1.6332 0-3 1.3668-3 3v4.5332c-0.98901-1.4866-2.5971-2.5332-4.5-2.5332-2.6108 0-4.7177 1.8957-5.2656 4.3516-0.05465-0.15683-0.02545-0.3513-0.08984-0.50586-0.56909-1.3658-1.6284-2.5252-3.0352-3.1504-1.3111-0.58271-2.6741-0.69531-4.1094-0.69531-1.1728 0-2.0094 0.80643-2.5 1.8086-0.49058-1.0022-1.3272-1.8086-2.5-1.8086-1.2713 0-2.4784 0.14121-3.6504 0.56641-0.43136-0.24292-0.8281-0.56641-1.3496-0.56641-1.1728 0-2.0094 0.80643-2.5 1.8086-0.04985-0.10182-0.06824-0.21333-0.12891-0.30859 0.29506-0.46329 0.62891-0.92046 0.62891-1.5 0-1.6332-1.3668-3-3-3s-3 1.3668-3 3c0 0.57954 0.33385 1.0367 0.62891 1.5-0.29506 0.46329-0.62891 0.92046-0.62891 1.5v0.62305c-0.58986-1.2592-1.5685-2.3401-2.8906-2.9277-1.3111-0.58271-2.6741-0.69531-4.1094-0.69531-1.1727 1.2e-4 -2.0094 0.80654-2.5 1.8086-0.04985-0.10182-0.06824-0.21333-0.12891-0.30859 0.29506-0.46329 0.62891-0.92046 0.62891-1.5 0-1.6332-1.3668-3-3-3-0.79474 0-1.5149 0.34275-2.0566 0.86328-0.08137-1.5189-1.2859-2.7982-2.8203-2.8613-1.1753-0.04783-2.2815 0.60571-2.8066 1.6582l-2.3164 4.6309-2.3164-4.6328c-0.61828-1.2349-2.0312-1.8948-3.375-1.5762-1.342 0.31796-2.3079 1.5369-2.3086 2.916v15.002c0 1.6332 1.3668 3 3 3s3-1.3668 3-3v-2.9473c1.1299 1.0246 2.8701 1.0246 4 0v2.9473c0 1.6332 1.3668 3 3 3 1.1728 0 2.0094-0.80643 2.5-1.8086 0.49058 1.0022 1.3272 1.8086 2.5 1.8086s2.0094-0.80643 2.5-1.8086c0.49058 1.0022 1.3272 1.8086 2.5 1.8086s2.0094-0.80643 2.5-1.8086c0.49058 1.0022 1.3272 1.8086 2.5 1.8086s2.0094-0.80643 2.5-1.8086c0.49058 1.0022 1.3272 1.8086 2.5 1.8086 1.1834 0 2.0267-0.81933 2.5117-1.8359 0.17239 0.37241 0.19586 0.82277 0.48633 1.0781 0.59661 0.52449 1.312 0.74414 2.002 0.74414s1.4053-0.21965 2.002-0.74414c0.59661-0.5245 0.98636-1.3886 0.99805-2.2148v-2e-3c3e-6 -2e-3 3e-6 -4e-3 0-6e-3 3e-6 -2e-3 3e-6 -4e-3 0-6e-3v-2e-3c3e-6 -2e-3 3e-6 -4e-3 0-6e-3 3e-6 -2e-3 3e-6 -4e-3 0-6e-3 0-3.9646 0.28698-6.5648 0.39258-6.8281 0.066195-0.02064 0.61369-0.17122 1.6074-0.17122 1.1728 0 2.0094-0.80643 2.5-1.8086 0.24177 0.49389 0.50327 0.86142 0.96094 1.1621-0.8829 0.97716-1.4609 2.239-1.4609 3.6465v1.5c0 3.0169 2.4831 5.5 5.5 5.5 0.4443 0 0.81441-0.2165 1.2305-0.31836 0.39202 0.18611 0.81455 0.31606 1.2598 0.31836 0.0033 1e-5 0.0065 1e-5 0.0098 0 1.5221 0 2.7104-1.2292 2.8789-2.7129 0.96897 1.5884 2.6408 2.7129 4.6211 2.7129 1.9788 0 3.6497-1.1226 4.6191-2.709 0.08729 0.73074 0.35336 1.4891 0.87891 1.9512 0.59661 0.52449 1.312 0.74414 2.002 0.74414s1.4053-0.21965 2.002-0.74414c0.29046-0.25536 0.31394-0.70572 0.48633-1.0781 0.48504 1.0166 1.3283 1.8359 2.5117 1.8359 1.1728 0 2.0094-0.80643 2.5-1.8086 0.49058 1.0022 1.3272 1.8086 2.5 1.8086s2.0094-0.80643 2.5-1.8086c0.49058 1.0022 1.3272 1.8086 2.5 1.8086 1.5221 0 2.7104-1.2292 2.8789-2.7129 0.969 1.5884 2.6408 2.7129 4.6211 2.7129 3.0169 0 5.5-2.4831 5.5-5.5v-0.5c0-0.57954-0.33385-1.0367-0.62891-1.5 0.29504-0.46324 0.62885-0.92052 0.62891-1.5v-1.5c0-3.0169-2.4831-5.5-5.5-5.5-2.5998 0-4.7002 1.8798-5.2598 4.3203-0.05312-0.14876-0.03435-0.32735-0.0957-0.47461-0.56909-1.3658-1.6284-2.5252-3.0352-3.1504-1.3111-0.58271-2.6741-0.69531-4.1094-0.69531-1.633 1.6e-4 -2.9998 1.367-3 3v0.62305c-0.58986-1.2592-1.5685-2.3401-2.8906-2.9277-0.44979-0.19991-0.71677-0.12814-1.1094-0.19922v-2.4961c0-1.6332-1.3668-3-3-3z" fill="#fff"/>
 <circle cx="50" cy="50" r="47.5" fill="#0c4996"/>
 <path d="m50 0a50 50 0 0 0-50 50 50 50 0 0 0 50 50 50 50 0 0 0 50-50 50 50 0 0 0-50-50zm0 5a45 45 0 0 1 17.15 3.4121l-4.0215 0.80469c-4.0668-2.0715-8.5476-3.2152-13.127-3.2168-0.0065-1.59e-5 -0.01302-1.59e-5 -0.019531 0-4.5505 0.020403-9.0003 1.1671-13.039 3.2305l-3.875-0.77539a45 45 0 0 1 16.932-3.4551zm40.627 25.684a45 45 0 0 1 3.6348 11.287l-6.3672-9.5527c0.99722-0.38099 1.934-0.94497 2.7324-1.7344zm-81.203 0.044922c0.78764 0.7643 1.7047 1.3162 2.6816 1.6895l-6.2832 9.4258a45 45 0 0 1 3.6016-11.115zm85.078 25.879a45 45 0 0 1-22.879 32.84c0.86694-1.2775 1.377-2.8097 1.377-4.4473v-16.449c1.7674 3.433 5.771 5.2936 9.5312 4.0391 4.1471-1.3826 6.442-5.9743 5.0586-10.121l-1.9258-5.7773c2.6013 1.6602 6.0702 1.7669 8.7734-0.035156 0.022663-0.015109 0.041995-0.033517 0.064453-0.048828zm-88.98 0.019531c0.014045 0.009495 0.026891 0.01988 0.041016 0.029297 2.7032 1.8021 6.1722 1.6954 8.7734 0.035156l-1.9258 5.7773c-1.3834 4.1468 0.9115 8.7385 5.0586 10.121 3.7603 1.2545 7.7638-0.60603 9.5312-4.0391v16.449c0 1.5823 0.48067 3.0635 1.2949 4.3145a45 45 0 0 1-22.773-32.688zm37.479 26.988c1.4356 2.7175 4.2559 4.3828 7 4.3828s5.5644-1.6653 7-4.3828v1.3848c0 3.9098 2.9055 7.2188 6.6465 7.875a45 45 0 0 1-13.646 2.125 45 45 0 0 1-13.607-2.1309c3.7223-0.67224 6.6074-3.9729 6.6074-7.8691v-1.3848z" fill="#fff"/>
 <path d="m50 10c-4.3982 0.01972-8.7133 1.1994-12.51 3.4199l-11.705-2.3418c-1.3115-0.26239-2.6674 0.14804-3.6133 1.0938l-10 10c-1.5617 1.562-1.5617 4.0942 0 5.6562 1.562 1.5617 4.0942 1.5617 5.6562 0l8.4863-8.4863 3.7031 0.74023c-1.9593 2.6179-3.3859 5.5946-4.1992 8.7617l-7.084 2.3613c-0.84359 0.28153-1.5693 0.83613-2.0625 1.5762l-10 15c-1.2253 1.8381-0.72865 4.3215 1.1094 5.5469 1.8381 1.2253 4.3215 0.72865 5.5469-1.1094l9.2383-13.857 2.6113-0.87109c0.23421 2.3146 0.79036 4.5852 1.6523 6.7461l-3.8887 2.334c-0.8184 0.49112-1.4342 1.2587-1.7363 2.1641l-5 15c-0.69923 2.0959 0.43326 4.3617 2.5293 5.0605 2.0959 0.69923 4.3617-0.43326 5.0605-2.5293l4.5312-13.598 2.5879-1.5527c1.1255 1.3129 2.3842 2.5055 3.7559 3.5586l-2.498 2.498c-0.75014 0.75005-1.1717 1.7673-1.1719 2.8281v25c0 2.2091 1.7909 4 4 4s4-1.7909 4-4v-23.344l1.2441-1.2441 5.9102 20.688c1.1072 3.8649 6.5842 3.8649 7.6914 0l5.9102-20.688 1.2441 1.2441v23.344c0 2.2091 1.7909 4 4 4s4-1.7909 4-4v-25c-2.04e-4 -1.0608-0.42173-2.0781-1.1719-2.8281l-2.498-2.498c1.3717-1.0531 2.6304-2.2457 3.7559-3.5586l2.5879 1.5527 4.5312 13.598c0.6988 2.096 2.9647 3.2285 5.0605 2.5293 2.096-0.6988 3.2285-2.9647 2.5293-5.0605l-5-15c-0.30208-0.90539-0.91792-1.6729-1.7363-2.1641l-3.8887-2.334c0.86199-2.1609 1.4181-4.4315 1.6523-6.7461l2.6113 0.87109 9.2383 13.857c1.2254 1.838 3.7088 2.3347 5.5469 1.1094 1.838-1.2254 2.3347-3.7088 1.1094-5.5469l-10-15c-0.49319-0.74004-1.2189-1.2946-2.0625-1.5762l-7.0332-2.3438c-0.80413-3.1767-2.225-6.1644-4.1816-8.793l3.6348-0.72656 8.4863 8.4863c1.562 1.5617 4.0942 1.5617 5.6562 0 1.5617-1.562 1.5617-4.0942 0-5.6562l-10-10c-0.94584-0.9457-2.3017-1.3561-3.6133-1.0938l-11.629 2.3262c-3.8203-2.228-8.1634-3.4028-12.586-3.4043z" fill="#1d83dc"/>
 <path d="m15.041 99a1.0001 1.0001 0 0 0-0.93555 0.55273l-4.1055 8.2109-4.1055-8.2109a1.0001 1.0001 0 0 0-1.125-0.52539 1.0001 1.0001 0 0 0-0.76953 0.97266v15a1 1 0 0 0 1 1 1 1 0 0 0 1-1v-10.764l3.1055 6.2109a1.0001 1.0001 0 0 0 1.7891 0l3.1055-6.2109v10.764a1 1 0 0 0 1 1 1 1 0 0 0 1-1v-15a1.0001 1.0001 0 0 0-0.95898-1zm54.959 0c-0.55228 0-1 0.44772-1 1v15c0.01859 1.3146 1.9814 1.3146 2 0v-8.8594c0.53261 0.0593 1.1903 0.08021 1.4844 0.21094 0.4921 0.21871 0.73016 0.46527 0.9668 1.0332 0.47328 1.1359 0.54883 3.6152 0.54883 7.6152 0 0.55228 0.44772 1 1 1s1-0.44772 1-1c0-4 0.07555-6.5206-0.70117-8.3848-0.38836-0.93206-1.0878-1.6855-2.002-2.0918-0.6369-0.28307-1.4792-0.30463-2.2969-0.36524v-4.1582c0-0.55228-0.44772-1-1-1zm-50 2a1 1 0 0 0-1 1 1 1 0 0 0 1 1 1 1 0 0 0 1-1 1 1 0 0 0-1-1zm15 0a1 1 0 0 0-1 1 1 1 0 0 0 1 1 1 1 0 0 0 1-1 1 1 0 0 0-1-1zm-15 3a1 1 0 0 0-1 1v10a1 1 0 0 0 1 1 1 1 0 0 0 1-1v-10a1 1 0 0 0-1-1zm5 0a1.0001 1.0001 0 0 0-1 1v10a1 1 0 0 0 1 1 1 1 0 0 0 1-1v-8.8594c0.53261 0.0593 1.1903 0.08021 1.4844 0.21094 0.4921 0.21871 0.73016 0.46527 0.9668 1.0332 0.47328 1.1359 0.54883 3.6152 0.54883 7.6152a1 1 0 0 0 1 1 1 1 0 0 0 1-1c0-4 0.07555-6.5206-0.70117-8.3848-0.38836-0.93206-1.0878-1.6855-2.002-2.0918s-1.9802-0.52344-3.2969-0.52344zm10 0a1 1 0 0 0-1 1v10a1 1 0 0 0 1 1 1 1 0 0 0 1-1v-10a1 1 0 0 0-1-1zm5 0a1 1 0 0 0-1 1v10a1.0001 1.0001 0 0 0 2 0c0-4 0.07555-6.4794 0.54883-7.6152 0.23664-0.56794 0.4747-0.8145 0.9668-1.0332s1.301-0.35156 2.4844-0.35156a1 1 0 0 0 1-1 1 1 0 0 0-1-1c-1.3167 0-2.3827 0.11715-3.2969 0.52344-0.26826 0.11923-0.47435 0.32329-0.70312 0.49804v-0.02148a1 1 0 0 0-1-1zm10 0a1 1 0 0 0-1 1 1 1 0 0 0 1 1c1.1833 0 1.9923 0.13285 2.4844 0.35156s0.73016 0.46527 0.9668 1.0332c0.035285 0.08468 0.066659 0.1796 0.097656 0.27929-0.33191-0.10557-0.6837-0.16406-1.0488-0.16406-1.9212 0-3.5 1.5788-3.5 3.5v1.5c0 1.9212 1.5788 3.5 3.5 3.5 0.60748 0 1.1798-0.15892 1.6797-0.43555a1 1 0 0 0 0.82031 0.43555 1 1 0 0 0 1-1c0-4 0.07555-6.5206-0.70117-8.3848-0.38836-0.93206-1.0878-1.6855-2.002-2.0918s-1.9802-0.52344-3.2969-0.52344zm12.5 0c-1.9212 0-3.5 1.5788-3.5 3.5v5c0 1.9212 1.5788 3.5 3.5 3.5s3.5-1.5788 3.5-3.5a1 1 0 0 0-1-1 1 1 0 0 0-1 1c0 0.84027-0.65973 1.5-1.5 1.5s-1.5-0.65973-1.5-1.5v-5c0-0.84027 0.65973-1.5 1.5-1.5s1.5 0.65973 1.5 1.5a1 1 0 0 0 1 1 1 1 0 0 0 1-1c0-1.9212-1.5788-3.5-3.5-3.5zm17.5 0a1.0001 1.0001 0 0 0-1 1v10a1 1 0 0 0 1 1 1 1 0 0 0 1-1v-8.8594c0.53261 0.0593 1.1903 0.08021 1.4844 0.21094 0.4921 0.21871 0.73016 0.46527 0.9668 1.0332 0.47328 1.1359 0.54883 3.6152 0.54883 7.6152a1 1 0 0 0 1 1 1 1 0 0 0 1-1c0-4 0.07555-6.5206-0.70117-8.3848-0.38836-0.93206-1.0878-1.6855-2.002-2.0918s-1.9802-0.52344-3.2969-0.52344zm12.5 0c-1.9212 0-3.5 1.5788-3.5 3.5v5c0 1.9212 1.5788 3.5 3.5 3.5s3.5-1.5788 3.5-3.5v-0.5c0-0.55228-0.44772-1-1-1s-1 0.44772-1 1v0.5c0 0.84027-0.65973 1.5-1.5 1.5s-1.5-0.65973-1.5-1.5v-2.5h4c0.55226-6e-5 0.99994-0.44774 1-1v-1.5c0-1.9212-1.5788-3.5-3.5-3.5zm0 2c0.84027 0 1.5 0.65973 1.5 1.5v0.5h-3v-0.5c0-0.84027 0.65973-1.5 1.5-1.5zm-40 3.5c0.67004 0 1.2244 0.4196 1.4219 1.0156 0.032346 0.64442 0.053395 1.372 0.064453 2.1875-0.096295 0.74132-0.7149 1.2969-1.4863 1.2969-0.84027 0-1.5-0.65973-1.5-1.5v-1.5c0-0.84027 0.65973-1.5 1.5-1.5z" fill="#1d83dc"/>
</svg>
