<?xml version="1.0" encoding="UTF-8"?>
<svg width="100" height="120" version="1.1" viewBox="0 0 100 120" xmlns="http://www.w3.org/2000/svg">
<circle cx="50" cy="50" r="47.5" fill="#0c4996"/>
<path d="m49.947 0a50 50 0 0 0-49.947 50 50 50 0 0 0 50 50 50 50 0 0 0 50-50 50 50 0 0 0-50-50 50 50 0 0 0-0.052734 0zm-0.12109 5a45 45 0 0 1 0.17383 0 45 45 0 0 1 18.779 4.1074l-4.2871 0.85742c-4.2735-2.4785-9.2111-3.9648-14.492-3.9648s-10.219 1.4863-14.492 3.9648l-4.2891-0.85938a45 45 0 0 1 18.607-4.1055zm-39.99 24.709c0.072291 0.07948 0.1382 0.16358 0.21484 0.24024 1.0338 1.0335 2.3518 1.5469 3.7109 1.7891l-8.4043 12.607a45 45 0 0 1 4.4785-14.637zm80.33 0a45 45 0 0 1 4.4766 14.635l-8.4043-12.605c1.3591-0.24213 2.6772-0.75552 3.7109-1.7891 0.07695-0.07697 0.14423-0.16042 0.2168-0.24024zm-73.336 22.666-3.4707 10.41c-1.208 3.6222 0.8037 7.6471 4.4258 8.8555 3.6222 1.208 7.6471-0.8037 8.8555-4.4258l1.3594-4.0781v21.863c0 2.517 1.3861 4.7516 3.4219 5.9863a45 45 0 0 1-26.123-35.814c0.25494 0.23349 0.52326 0.4556 0.81836 0.65234 3.1772 2.118 7.5888 1.2357 9.707-1.9414l1.0059-1.5078zm66.34 0 1.0059 1.5078c2.1182 3.1771 6.5298 4.0595 9.707 1.9414 0.29589-0.19727 0.5648-0.42009 0.82031-0.6543a45 45 0 0 1-26.121 35.814c2.0337-1.2352 3.418-3.4689 3.418-5.9844v-21.863l1.3594 4.0781c1.2084 3.6221 5.2333 5.6338 8.8555 4.4258 3.6221-1.2084 5.6338-5.2333 4.4258-8.8555l-3.4707-10.41zm-42.08 35.85 1.543 6.168a45 45 0 0 1-9.3984-2.6328c0.56642 0.1516 1.1564 0.24023 1.7656 0.24023 2.6411 0 4.9001-1.5735 6.0898-3.7754zm17.82 0c1.1896 2.202 3.4488 3.7754 6.0898 3.7754 0.61067 0 1.2019-0.08987 1.7695-0.24219a45 45 0 0 1-9.4023 2.6348l1.543-6.168z" fill="#fff"/>
<path d="m50 10c-5.1149 0-9.8689 1.5398-13.83 4.1758l-10.582-2.1172a3.0003 3.0003 0 0 0-0.57812-0.05859 3.0003 3.0003 0 0 0-2.1309 0.87891l-10 10a3 3 0 0 0 0 4.2422 3 3 0 0 0 4.2422 0l8.8652-8.8652 4.6523 0.92969c-2.4188 2.9578-4.1688 6.4809-5.0312 10.34l-6.7207 2.6895a3.0003 3.0003 0 0 0-1.3828 1.1211l-10 15a3 3 0 0 0 0.83203 4.1602 3 3 0 0 0 4.1602-0.83203l9.4824-14.225 3.0527-1.2207c0.14496 3.0203 0.82533 5.8987 1.9492 8.5449l-3.7812 2.8359a3.0003 3.0003 0 0 0-1.0449 1.4512l-5 15a3 3 0 0 0 1.8965 3.7949 3 3 0 0 0 3.7949-1.8965l4.7031-14.111 2.4512-1.8379c1.422 1.8929 3.1071 3.578 5 5l-2.4004 3.1992a3.0003 3.0003 0 0 0-0.59961 1.8008v25a3 3 0 0 0 3 3 3 3 0 0 0 3-3v-24l0.30664-0.4082 8.7832 35.137a3.0003 3.0003 0 0 0 5.8203 0l8.7832-35.137 0.30664 0.4082v24a3 3 0 0 0 3 3 3 3 0 0 0 3-3v-25a3.0003 3.0003 0 0 0-0.59961-1.8008l-2.4004-3.1992c1.8929-1.422 3.578-3.1071 5-5l2.4512 1.8379 4.7031 14.111a3 3 0 0 0 3.7949 1.8965 3 3 0 0 0 1.8965-3.7949l-5-15a3.0003 3.0003 0 0 0-1.0449-1.4512l-3.7812-2.8359c1.1239-2.6462 1.8043-5.5246 1.9492-8.5449l3.0527 1.2207 9.4824 14.225a3 3 0 0 0 4.1602 0.83203 3 3 0 0 0 0.83203-4.1602l-10-15a3.0003 3.0003 0 0 0-1.3828-1.1211l-6.7207-2.6895c-0.8624-3.8589-2.6124-7.382-5.0312-10.34l4.6523-0.92969 8.8652 8.8652a3 3 0 0 0 4.2422 0 3 3 0 0 0 0-4.2422l-10-10a3.0003 3.0003 0 0 0-2.0957-0.87891 3.0003 3.0003 0 0 0-0.61328 0.05859l-10.582 2.1172c-3.9612-2.636-8.7152-4.1758-13.83-4.1758z" fill="#1d83dc"/>
<path d="m2 100v15c0 1.6332 1.3668 3 3 3s3-1.3668 3-3v-2.9473c1.1299 1.0246 2.8701 1.0246 4 0v2.9473c0 1.6332 1.3668 3 3 3 1.1728 0 2.0094-0.80643 2.5-1.8086 0.49057 1.0022 1.3272 1.8086 2.5 1.8086s2.0094-0.80643 2.5-1.8086c0.49057 1.0022 1.3272 1.8086 2.5 1.8086s2.0094-0.80643 2.5-1.8086c0.49057 1.0022 1.3272 1.8086 2.5 1.8086s2.0094-0.80643 2.5-1.8086c0.49057 1.0022 1.3272 1.8086 2.5 1.8086 1.1834 0 2.0267-0.81933 2.5117-1.8359 0.17239 0.37241 0.19586 0.82277 0.48633 1.0781 0.59661 0.52449 1.312 0.74414 2.002 0.74414s1.4053-0.21965 2.002-0.74414c0.59661-0.5245 0.98636-1.3886 0.99805-2.2148 6.2e-5 -9e-3 6.2e-5 -0.0182 0-0.0273 0-2.4821 0.1122-4.8503 0.4707-5.9258 0.18898-0.56694 0.35699-0.75162 0.48047-0.84766 0.14766-0.11484 0.2765-0.22656 1.0488-0.22656 1.1728 0 2.0094-0.80643 2.5-1.8086 0.25259 0.51599 0.54149 0.88867 1.0273 1.1914-0.16668 0.32197-0.42794 0.5995-0.55469 0.9375-0.65615 1.7497-0.97266 3.9349-0.97266 6.6797 1.63e-4 1.633 1.367 2.9998 3 3h4.9961c0.25224 4.8e-4 0.50458-0.031 0.75-0.0937 2e-3 -6.6e-4 0.0039-1e-3 0.0059-2e-3 0.10815-0.028 0.19084-0.0565 0.25586-0.0801 0.07782-0.0278 0.1456-0.0544 0.19922-0.0781l0.01367-6e-3c0.07293-0.0322 0.14448-0.0686 0.21289-0.10546 0.0091-5e-3 0.01826-9e-3 0.02734-0.0137 0.14607-0.0818 0.28391-0.1765 0.41211-0.27929 0.12758-0.10171 0.24867-0.2131 0.35938-0.33594 2e-3 -3e-3 0.0039-7e-3 0.0059-0.01 0.33668-0.3778 0.5729-0.83475 0.68555-1.3281v-2e-3c0.0053-0.0231 0.0051-0.0471 0.0098-0.0703 0.17935 0.30482 0.29427 0.62435 0.57031 0.90039 1.0082 1.0082 2.2843 1.2983 3.2734 1.4082 0.98104 0.10941 1.9779 0.0957 3.2227 0.0957 1.1834 0 2.0267-0.81933 2.5117-1.8359 0.17239 0.37241 0.19586 0.82277 0.48633 1.0781 0.59661 0.52449 1.312 0.74414 2.002 0.74414s1.4053-0.21965 2.002-0.74414c0.29046-0.25536 0.31394-0.70572 0.48633-1.0781 0.48504 1.0166 1.3283 1.8359 2.5117 1.8359 1.1728 0 2.0094-0.80643 2.5-1.8086 0.49057 1.0022 1.3272 1.8086 2.5 1.8086s2.0094-0.80643 2.5-1.8086c0.49057 1.0022 1.3272 1.8086 2.5 1.8086 1.4703 0 2.5887-1.1655 2.8242-2.5781 0.19472 0.36704 0.35046 0.74498 0.67969 1.0742 1.0082 1.0082 2.2843 1.2983 3.2734 1.4082 0.98114 0.109 1.9779 0.0957 3.2227 0.0957 1.6332 0 3-1.3668 3-3 0-1.1728-0.80643-2.0094-1.8086-2.5 1.002-0.49057 1.8085-1.3273 1.8086-2.5 0-1.7477-0.4369-3.3527-1.3809-4.6113-0.96941-1.2925-2.4658-2.1387-4.1191-2.1387s-3.1497 0.84614-4.1191 2.1387c-0.50493 0.67324-0.84296 1.4544-1.0684 2.2949-0.04807-0.16804-0.03612-0.34078-0.0918-0.50781-0.44126-1.3238-1.2004-2.6819-2.4883-3.6836-1.3016-1.0124-2.9653-1.4922-4.7324-1.4922-1.633 1.8e-4 -2.9998 1.367-3 3v1.707c-0.45834-1.1682-1.1334-2.3327-2.2676-3.2148-0.54727-0.42565-1.1347-0.71517-1.7324-0.92383v-2.5684c0-1.6332-1.3668-3-3-3s-3 1.3668-3 3v2.8398c-0.53695-0.49561-1.2271-0.83984-2-0.83984-1.2447 0-2.2412-0.0135-3.2227 0.0957-0.98919 0.10991-2.2653 0.40004-3.2734 1.4082-1.0082 1.0082-1.2983 2.2843-1.4082 3.2734-0.0042 0.0381-4.2e-5 0.0869-0.0039 0.125-0.45285-1.2344-1.1612-2.4782-2.3594-3.4102-1.3017-1.0126-2.9653-1.4922-4.7324-1.4922-1.1728 0-2.0094 0.80643-2.5 1.8086-0.49057-1.0022-1.3272-1.8086-2.5-1.8086-1.1711 0-2.2491 0.29579-3.2539 0.73242-0.50618-0.38893-1.0714-0.73242-1.7461-0.73242-1.1728 0-2.0094 0.80643-2.5 1.8086-0.04984-0.10182-0.06824-0.21333-0.12891-0.30859 0.29506-0.46329 0.62891-0.92046 0.62891-1.5 0-1.6332-1.3668-3-3-3s-3 1.3668-3 3c0 0.57954 0.33385 1.0367 0.62891 1.5-0.29506 0.46329-0.62891 0.92046-0.62891 1.5v1.707c-0.45834-1.1682-1.1334-2.3327-2.2676-3.2148-1.3016-1.0124-2.9653-1.4922-4.7324-1.4922-1.1727 1.3e-4 -2.0094 0.80654-2.5 1.8086-0.04985-0.10182-0.06824-0.21333-0.12891-0.30859 0.29506-0.46329 0.62891-0.92046 0.62891-1.5 0-1.6332-1.3668-3-3-3-0.79319 0-1.5113 0.34258-2.0527 0.86133-0.0778-1.3575-1.1052-2.5091-2.2578-2.7812-1.1966-0.2825-2.735 0.30262-3.373 1.5781l-2.3164 4.6328-2.3164-4.6328c-0.49983-0.99963-1.5251-1.6429-2.908-1.6615-1.3829-0.018608-2.7759 1.3557-2.7759 3.0038zm65 7.1602v5.6797c-0.53695-0.49561-1.2271-0.83984-2-0.83984-0.95014 0-1.4707-0.0229-1.9531-0.0469-0.02398-0.48228-0.04687-1.0029-0.04687-1.9531 0-0.95022 0.0229-1.4708 0.04687-1.9531 0.48231-0.024 1.0029-0.0469 1.9531-0.0469 0.77291 0 1.463-0.34423 2-0.83984z" fill="#fff"/>
<path d="m5.0137 99c-0.55759-0.007568-1.0137 0.44236-1.0137 1v15c0 0.55228 0.44772 1 1 1s1-0.44772 1-1v-10.764l3.1055 6.2109c0.36855 0.73716 1.4205 0.73716 1.7891 0l3.1055-6.2109v10.764c0 0.55228 0.44772 1 1 1s1-0.44772 1-1v-15c-1.73e-4 -1.0551-1.4225-1.3909-1.8945-0.44727l-4.1055 8.2109-4.1055-8.2109c-0.16721-0.33442-0.507-0.54763-0.88086-0.55273zm64.986 0c-0.55228 0-1 0.44772-1 1v15c0.01859 1.3146 1.9814 1.3146 2 0v-8.7148c0.43526 0.11269 0.99197 0.14132 1.2773 0.36328 0.50882 0.39575 0.8781 0.98196 1.1484 1.793 0.54067 1.622 0.57422 4.0586 0.57422 6.5586 0 0.55228 0.44772 1 1 1s1-0.44772 1-1c0-2.5 0.03355-5.0634-0.67578-7.1914-0.35466-1.064-0.92289-2.0403-1.8203-2.7383-0.66699-0.51877-1.5406-0.78994-2.5039-0.92969v-4.1406c0-0.55228-0.44772-1-1-1zm-50 2c-0.55228 0-1 0.44772-1 1s0.44772 1 1 1 1-0.44772 1-1-0.44772-1-1-1zm15 0c-0.55228 0-1 0.44772-1 1s0.44772 1 1 1 1-0.44772 1-1-0.44772-1-1-1zm-15 3c-0.55228 0-1 0.44772-1 1v10c0 0.55228 0.44772 1 1 1s1-0.44772 1-1v-10c0-0.55228-0.44772-1-1-1zm5 0c-0.55226 6e-5 -0.99994 0.44774-1 1v10c0 0.55228 0.44772 1 1 1s1-0.44772 1-1v-8.7148c0.43526 0.11269 0.99197 0.14132 1.2773 0.36328 0.50882 0.39575 0.8781 0.98196 1.1484 1.793 0.54067 1.622 0.57422 4.0586 0.57422 6.5586 0 0.55228 0.44772 1 1 1s1-0.44772 1-1c0-2.5 0.03355-5.0634-0.67578-7.1914-0.35466-1.064-0.92289-2.0403-1.8203-2.7383s-2.0872-1.0703-3.5039-1.0703zm10 0c-0.55228 0-1 0.44772-1 1v10c0 0.55228 0.44772 1 1 1s1-0.44772 1-1v-10c0-0.55228-0.44772-1-1-1zm5 0c-0.55228 0-1 0.44772-1 1v10c0.01859 1.3146 1.9814 1.3146 2 0 0-2.5 0.03355-4.9366 0.57422-6.5586 0.27034-0.81101 0.63961-1.3972 1.1484-1.793s1.194-0.64844 2.2773-0.64844c0.55228 0 1-0.44772 1-1s-0.44772-1-1-1c-1.4167 0-2.6065 0.37231-3.5039 1.0703-0.19988 0.15547-0.32769 0.36783-0.49609 0.54883v-0.61914c0-0.55228-0.44772-1-1-1zm10 0c-0.55228 0-1 0.44772-1 1s0.44772 1 1 1c1.0565 0 1.7159 0.25386 2.2207 0.63281-0.51567 0.089-1.0187 0.27856-1.3691 0.65235-0.42189 0.45001-0.73942 1.0278-1.0059 1.7383-0.53288 1.421-0.8457 3.3932-0.8457 5.9766 5.5e-5 0.55226 0.44774 0.99994 1 1h5c0.08432 1.6e-4 0.16832-0.0103 0.25-0.0312 0.02704-7e-3 0.05375-0.0158 0.08008-0.0254 0.02647-9e-3 0.05253-0.0197 0.07813-0.0312 0.0259-0.0113 0.05132-0.0237 0.07617-0.0371 0.04876-0.0273 0.09515-0.0587 0.13867-0.0937 0.04419-0.0349 0.08535-0.0734 0.12305-0.11523 0.11239-0.12612 0.19101-0.27865 0.22852-0.44336 0.01245-0.0546 0.02029-0.11012 0.02344-0.16602 0.0012-0.0189 0.0018-0.0378 2e-3 -0.0566 0-2.5 0.03355-5.0634-0.67578-7.1914-0.35466-1.064-0.92289-2.0403-1.8203-2.7383-0.89748-0.69819-2.0873-1.0705-3.504-1.0705zm15 0c-1.25 0-2.2019-5e-3 -3.002 0.084-0.80009 0.0889-1.5319 0.28579-2.0801 0.83399s-0.74509 1.28-0.83398 2.0801c-0.0889 0.80007-0.08398 1.7519-0.08398 3.0019s-0.0049 2.2019 0.08398 3.002c0.0889 0.80009 0.28578 1.5319 0.83398 2.0801s1.28 0.74509 2.0801 0.83399c0.80009 0.0889 1.752 0.084 3.002 0.084 0.55228 0 1-0.44772 1-1s-0.44772-1-1-1c-1.25 0-2.1731-5e-3 -2.7793-0.0723s-0.81187-0.18296-0.88867-0.25976-0.19241-0.28251-0.25976-0.88867c-0.06735-0.60613-0.07227-1.5293-0.07227-2.7793s0.0049-2.1731 0.07227-2.7793c0.06735-0.60616 0.18297-0.81187 0.25976-0.88867 0.0768-0.0768 0.28251-0.19241 0.88867-0.25976 0.60616-0.0674 1.5293-0.0723 2.7793-0.0723 0.55228 0 1-0.44772 1-1s-0.44772-1-1-1zm15 0c-0.55226 6e-5 -0.99994 0.44774-1 1v10c0 0.55228 0.44772 1 1 1s1-0.44772 1-1v-8.7148c0.43526 0.11269 0.99197 0.14132 1.2773 0.36328 0.50882 0.39575 0.8781 0.98196 1.1484 1.793 0.54067 1.622 0.57422 4.0586 0.57422 6.5586 0 0.55228 0.44772 1 1 1s1-0.44772 1-1c0-2.5 0.03355-5.0634-0.67578-7.1914-0.35466-1.064-0.92289-2.0403-1.8203-2.7383s-2.0872-1.0703-3.5039-1.0703zm12.5 1.25c-0.95833 0-1.8908 0.49956-2.5195 1.3379s-0.98047 1.9954-0.98047 3.4121c0 1.25-0.0049 2.2019 0.08398 3.002 0.0889 0.80009 0.28578 1.5319 0.83398 2.0801s1.28 0.74509 2.0801 0.83399c0.80009 0.0889 1.752 0.084 3.002 0.084 0.55228 0 1-0.44772 1-1s-0.44772-1-1-1c-1.25 0-2.1731-5e-3 -2.7793-0.0723s-0.81187-0.18296-0.88867-0.25976-0.19241-0.28251-0.25976-0.88867c-0.04312-0.38807-0.03992-1.1285-0.04687-1.7793h3.9746c0.55226-6e-5 0.99994-0.44774 1-1 0-1.4167-0.35172-2.5738-0.98047-3.4121s-1.5612-1.3379-2.5195-1.3379zm0 2c0.29167 0 0.60922 0.12544 0.91797 0.53711 0.1692 0.22561 0.20982 0.7937 0.31836 1.2129h-2.4727c0.10854-0.41919 0.14916-0.98728 0.31836-1.2129 0.30875-0.41167 0.6263-0.53711 0.91797-0.53711zm-40 1.25c-0.02083 0 0.02345-0.0226 0.1875 0.15234 0.16405 0.17499 0.39339 0.53473 0.5957 1.0742 0.32788 0.87436 0.49034 2.5131 0.58008 4.2734h-2.7266c0.08974-1.7603 0.2522-3.3991 0.58008-4.2734 0.20231-0.53949 0.43166-0.89923 0.5957-1.0742 0.16405-0.17498 0.20833-0.15234 0.1875-0.15234z" fill="#1d83dc"/>
</svg>
