<?xml version="1.0" encoding="UTF-8"?>
<svg width="500" height="120" version="1.1" viewBox="0 0 500 120" xmlns="http://www.w3.org/2000/svg">
 <path d="m387.1 18c-6.5326 0-12 5.4674-12 12v18.133c-3.956-5.9463-10.388-10.133-18-10.133-10.443 0-18.871 7.5828-21.063 17.406-0.2188-0.62732-0.102-1.4052-0.3592-2.0234-2.2764-5.4632-6.5137-10.101-12.141-12.602-5.2446-2.3308-10.696-2.7812-16.438-2.7812-4.6912 0-8.0377 3.2257-10 7.2344-1.9623-4.0086-5.3088-7.2344-10-7.2344-5.0852 0-9.9136 0.56484-14.602 2.2656-1.7254-0.97168-3.3124-2.2656-5.3984-2.2656-4.6912 0-8.0377 3.2257-10 7.2344-0.1992-0.40728-0.2728-0.85332-0.51564-1.2344 1.1802-1.8532 2.5156-3.6818 2.5156-6 0-6.5326-5.4674-12-12-12s-12 5.4674-12 12c0 2.3182 1.3354 4.1468 2.5156 6-1.1802 1.8532-2.5156 3.6818-2.5156 6v2.4922c-2.3594-5.037-6.2738-9.3604-11.563-11.711-5.2444-2.3308-10.696-2.7812-16.437-2.7812-4.6907 4.8e-4 -8.0377 3.2262-10 7.2344-0.1992-0.40728-0.2728-0.85332-0.51564-1.2344 1.1802-1.8532 2.5156-3.6818 2.5156-6 0-6.5326-5.4674-12-12-12-3.179 0-6.0594 1.371-8.2266 3.4531-0.3256-6.0754-5.1435-11.193-11.281-11.445-4.7011-0.1912-9.1258 2.4228-11.227 6.6328l-9.2656 18.523-9.2656-18.531c-2.4731-4.9397-8.1248-7.5791-13.5-6.3047-5.368 1.2718-9.2316 6.1475-9.2344 11.664v60.008c0 6.5326 5.4674 12 12 12s12-5.4674 12-12v-11.789c4.5196 4.0986 11.48 4.0986 16 0v11.789c0 6.5326 5.4674 12 12 12 4.6912 0 8.0377-3.2257 10-7.2344 1.9623 4.0086 5.3088 7.2344 10 7.2344s8.0377-3.2257 10-7.2344c1.9623 4.0086 5.3088 7.2344 10 7.2344s8.0377-3.2257 10-7.2344c1.9623 4.0086 5.3088 7.2344 10 7.2344s8.0377-3.2257 10-7.2344c1.9623 4.0086 5.3088 7.2344 10 7.2344 4.7335 0 8.1067-3.2773 10.047-7.3438 0.68956 1.4896 0.78344 3.2911 1.9453 4.3125 2.3864 2.098 5.2478 2.9766 8.0078 2.9766s5.6214-0.8786 8.0078-2.9766c2.3864-2.098 3.9455-5.5546 3.9922-8.8594v-8e-3 -0.024-0.024-8e-3 -0.024-0.024c0-15.858 1.1479-26.259 1.5703-27.312 0.26476-0.08256 2.4548-0.68488 6.4297-0.68488 4.6912 0 8.0377-3.2257 10-7.2344 0.96708 1.9756 2.0131 3.4457 3.8438 4.6484-3.5316 3.9086-5.8438 8.9562-5.8438 14.586v6c0 12.068 9.9324 22 22 22 1.7772 0 3.2576-0.866 4.9219-1.2734 1.568 0.74444 3.2582 1.2642 5.039 1.2734 0.012 4e-5 0.028 4e-5 0.04 0 6.0886 0 10.842-4.917 11.516-10.852 3.8759 6.3538 10.563 10.852 18.484 10.852 7.915 0 14.599-4.4903 18.477-10.836 0.3492 2.923 1.4134 5.9566 3.5156 7.8047 2.3864 2.098 5.2478 2.9766 8.0078 2.9766s5.6214-0.8786 8.0078-2.9766c1.1619-1.0214 1.2558-2.8229 1.9453-4.3125 1.9394 4.0664 5.3126 7.3438 10.046 7.3438 4.6912 0 8.0377-3.2257 10-7.2344 1.9623 4.0086 5.3088 7.2344 10 7.2344s8.0377-3.2257 10-7.2344c1.9623 4.0086 5.3088 7.2344 10 7.2344 6.0886 0 10.842-4.917 11.516-10.852 3.876 6.3538 10.563 10.852 18.484 10.852 12.068 0 22-9.9324 22-22v-2c0-2.3182-1.3354-4.1468-2.5156-6 1.1802-1.853 2.5154-3.6821 2.5156-6v-6c0-12.068-9.9324-22-22-22-10.399 0-18.801 7.5194-21.039 17.281-0.2124-0.59504-0.1372-1.3094-0.3828-1.8984-2.2764-5.4632-6.5137-10.101-12.141-12.602-5.2444-2.3308-10.696-2.7812-16.438-2.7812-6.532 6.4e-4 -11.999 5.468-12 12v2.4922c-2.3594-5.037-6.2738-9.3604-11.563-11.711-1.7992-0.79964-2.867-0.51256-4.4375-0.79688v-9.9844c0-6.5326-5.4674-12-12-12z" fill="#fff"/>
 <path d="m167.26 26a4.0004 4.0004 0 0 0-3.7422 2.2109l-16.422 32.844-16.422-32.844a4.0004 4.0004 0 0 0-4.5-2.1016 4.0004 4.0004 0 0 0-3.0781 3.8906v60a4 4 0 0 0 4 4 4 4 0 0 0 4-4v-43.055l12.422 24.844a4.0004 4.0004 0 0 0 7.1562 0l12.422-24.844v43.055a4 4 0 0 0 4 4 4 4 0 0 0 4-4v-60a4.0004 4.0004 0 0 0-3.8359-4zm219.84 0c-2.2091 0-4 1.7909-4 4v60c0.0744 5.2584 7.9256 5.2584 8 0v-35.438c2.1304 0.2372 4.7613 0.3208 5.9375 0.84376 1.9684 0.87484 2.9206 1.8611 3.8672 4.1328 1.8931 4.5434 2.1953 14.461 2.1953 30.461 0 2.2091 1.7909 4 4 4s4-1.7909 4-4c0-16 0.302-26.083-2.8047-33.539-1.5534-3.7282-4.3512-6.742-8.0078-8.3672-2.5476-1.1323-5.9166-1.2185-9.1875-1.461v-16.633c0-2.2091-1.7909-4-4-4zm-200 8a4 4 0 0 0-4 4 4 4 0 0 0 4 4 4 4 0 0 0 4-4 4 4 0 0 0-4-4zm60 0a4 4 0 0 0-4 4 4 4 0 0 0 4 4 4 4 0 0 0 4-4 4 4 0 0 0-4-4zm-60 12a4 4 0 0 0-4 4v40a4 4 0 0 0 4 4 4 4 0 0 0 4-4v-40a4 4 0 0 0-4-4zm20 0a4.0004 4.0004 0 0 0-4 4v40a4 4 0 0 0 4 4 4 4 0 0 0 4-4v-35.438c2.1304 0.2372 4.7613 0.3208 5.9375 0.84376 1.9684 0.87484 2.9206 1.8611 3.8672 4.1328 1.8931 4.5434 2.1953 14.461 2.1953 30.461a4 4 0 0 0 4 4 4 4 0 0 0 4-4c0-16 0.302-26.083-2.8047-33.539-1.5534-3.7282-4.3512-6.742-8.0078-8.3672-3.6566-1.6252-7.9208-2.0938-13.187-2.0938zm40 0a4 4 0 0 0-4 4v40a4 4 0 0 0 4 4 4 4 0 0 0 4-4v-40a4 4 0 0 0-4-4zm20 0a4 4 0 0 0-4 4v40a4.0004 4.0004 0 0 0 8 0c0-16 0.302-25.917 2.1953-30.461 0.94656-2.2718 1.8988-3.258 3.8672-4.1328s5.2042-1.4062 9.9375-1.4062a4 4 0 0 0 4-4 4 4 0 0 0-4-4c-5.2667 0-9.5309 0.4686-13.188 2.0938-1.073 0.47692-1.8974 1.2932-2.8125 1.9922v-0.08592a4 4 0 0 0-4-4zm40 0a4 4 0 0 0-4 4 4 4 0 0 0 4 4c4.7333 0 7.9691 0.5314 9.9375 1.4062s2.9206 1.8611 3.8672 4.1328c0.1412 0.3388 0.2668 0.7184 0.3908 1.1172-1.3278-0.42228-2.735-0.65624-4.1955-0.65624-7.6846 0-14 6.3154-14 14v6c0 7.6846 6.3154 14 14 14 2.4299 0 4.719-0.63568 6.7188-1.7422a4 4 0 0 0 3.2812 1.7422 4 4 0 0 0 4-4c0-16 0.302-26.083-2.8047-33.539-1.5534-3.7282-4.3512-6.742-8.0078-8.3672-3.6566-1.6252-7.9208-2.0938-13.187-2.0938zm50 0c-7.6846 0-14 6.3154-14 14v20c0 7.6846 6.3154 14 14 14s14-6.3154 14-14a4 4 0 0 0-4-4 4 4 0 0 0-4 4c0 3.3611-2.6389 6-6 6s-6-2.6389-6-6v-20c0-3.3611 2.6389-6 6-6s6 2.6389 6 6a4 4 0 0 0 4 4 4 4 0 0 0 4-4c0-7.6846-6.3154-14-14-14zm70 0a4.0004 4.0004 0 0 0-4 4v40a4 4 0 0 0 4 4 4 4 0 0 0 4-4v-35.438c2.1304 0.2372 4.7613 0.3208 5.9375 0.84376 1.9684 0.87484 2.9206 1.8611 3.8672 4.1328 1.8931 4.5434 2.1953 14.461 2.1953 30.461a4 4 0 0 0 4 4 4 4 0 0 0 4-4c0-16 0.302-26.083-2.8047-33.539-1.5534-3.7282-4.3512-6.742-8.0078-8.3672-3.6566-1.6252-7.9208-2.0938-13.187-2.0938zm50 0c-7.6846 0-14 6.3154-14 14v20c0 7.6846 6.3154 14 14 14s14-6.3154 14-14v-2c0-2.2091-1.7909-4-4-4s-4 1.7909-4 4v2c0 3.3611-2.6389 6-6 6s-6-2.6389-6-6v-10h16c2.209-2.4e-4 3.9998-1.791 4-4v-6c0-7.6846-6.3154-14-14-14zm0 8c3.3611 0 6 2.6389 6 6v2h-12v-2c0-3.3611 2.6389-6 6-6zm-160 14c2.6802 0 4.8976 1.6784 5.6875 4.0625 0.1292 2.5777 0.2136 5.488 0.2576 8.75-0.38496 2.9653-2.8594 5.1875-5.9451 5.1875-3.3611 0-6-2.6389-6-6v-6c0-3.3611 2.6389-6 6-6z" fill="#1d83dc"/>
 <circle cx="60" cy="60" r="57" fill="#0c4996"/>
 <path d="m60-3e-6a60 60 0 0 0-60 60 60 60 0 0 0 60 60 60 60 0 0 0 60-60 60 60 0 0 0-60-60zm0 6a54 54 0 0 1 20.58 4.0945l-4.8258 0.96562c-4.8801-2.4858-10.257-3.8582-15.752-3.8602-0.0072-1.92e-5 -0.0156-1.92e-5 -0.0234 0-5.4606 0.02448-10.8 1.4005-15.647 3.8766l-4.65-0.93047a54 54 0 0 1 20.318-4.1461zm48.752 30.82a54 54 0 0 1 4.3617 13.545l-7.6406-11.463c1.1967-0.45719 2.3208-1.134 3.2789-2.0812zm-97.444 0.0539c0.94517 0.91717 2.0457 1.5795 3.218 2.0273l-7.5398 11.311a54 54 0 0 1 4.3219-13.338zm102.09 31.055a54 54 0 0 1-27.455 39.408c1.0403-1.533 1.6523-3.3717 1.6523-5.3367v-19.739c2.1209 4.1196 6.9252 6.3523 11.438 4.8469 4.9765-1.6591 7.7304-7.1691 6.0703-12.145l-2.3109-6.9328c3.1215 1.9923 7.2843 2.1203 10.528-0.04224 0.0272-0.01812 0.0504-0.0402 0.0773-0.05856zm-106.78 0.0234c0.0168 0.012 0.03228 0.02388 0.0492 0.03516 3.2439 2.1625 7.4066 2.0345 10.528 0.04224l-2.3109 6.9328c-1.6601 4.9762 1.0938 10.486 6.0703 12.145 4.5123 1.5054 9.3166-0.72724 11.438-4.8469v19.739c0 1.8988 0.5768 3.6762 1.5539 5.1773a54 54 0 0 1-27.328-39.225zm44.974 32.386c1.7227 3.261 5.1071 5.2594 8.4 5.2594s6.6773-1.9984 8.4-5.2594v1.6617c0 4.6917 3.4866 8.6626 7.9758 9.45a54 54 0 0 1-16.376 2.55 54 54 0 0 1-16.329-2.557c4.4668-0.80667 7.9289-4.7674 7.9289-9.443z" fill="#fff"/>
 <path d="m60 12c-5.2778 0.02366-10.456 1.4393-15.012 4.1039l-14.046-2.8102c-1.5738-0.31487-3.2009 0.17765-4.3359 1.3125l-12 12c-1.874 1.8744-1.874 4.9131 0 6.7875 1.8744 1.874 4.9131 1.874 6.7875 0l10.184-10.184 4.4438 0.88828c-2.3511 3.1414-4.0631 6.7136-5.0391 10.514l-8.5008 2.8336c-1.0123 0.33783-1.8832 1.0034-2.475 1.8914l-12 18c-1.4704 2.2057-0.87439 5.1858 1.3312 6.6563 2.2057 1.4704 5.1858 0.87438 6.6563-1.3313l11.086-16.629 3.1336-1.0453c0.28105 2.7776 0.94843 5.5023 1.9828 8.0953l-4.6664 2.8008c-0.98209 0.58935-1.7211 1.5104-2.0836 2.5969l-6 18c-0.83908 2.5151 0.51991 5.2341 3.0351 6.0726 2.5151 0.83908 5.2341-0.51991 6.0727-3.0351l5.4375-16.317 3.1055-1.8633c1.3506 1.5755 2.861 3.0066 4.507 4.2703l-2.9977 2.9977c-0.90017 0.90005-1.406 2.1208-1.4062 3.3937v30c0 2.651 2.149 4.8 4.8 4.8s4.8-2.149 4.8-4.8v-28.013l1.493-1.493 7.0922 24.825c1.3287 4.6379 7.901 4.6379 9.2297 0l7.0922-24.825 1.493 1.493v28.013c0 2.651 2.149 4.8 4.8 4.8s4.8-2.149 4.8-4.8v-30c-2.4e-4 -1.273-0.50608-2.4937-1.4063-3.3937l-2.9976-2.9977c1.646-1.2637 3.1564-2.6948 4.507-4.2703l3.1055 1.8633 5.4375 16.317c0.83856 2.5152 3.5576 3.8742 6.0726 3.0351 2.5152-0.83856 3.8742-3.5576 3.0352-6.0726l-6-18c-0.3625-1.0865-1.1015-2.0075-2.0836-2.5969l-4.6664-2.8008c1.0344-2.593 1.7018-5.3178 1.9828-8.0953l3.1336 1.0453 11.086 16.629c1.4705 2.2056 4.4506 2.8016 6.6563 1.3313 2.2056-1.4705 2.8016-4.4506 1.3312-6.6563l-12-18c-0.59183-0.88805-1.4627-1.5536-2.475-1.8914l-8.4398-2.8125c-0.96496-3.8121-2.6699-7.3972-5.018-10.552l4.3617-0.87188 10.184 10.184c1.8744 1.874 4.9131 1.874 6.7875 0 1.874-1.8744 1.874-4.9131 0-6.7875l-12-12c-1.135-1.1348-2.7621-1.6274-4.3359-1.3125l-13.955 2.7914c-4.5844-2.6736-9.796-4.0833-15.103-4.0852z" fill="#1d83dc"/>
</svg>
