<?xml version="1.0" encoding="UTF-8"?>
<svg width="500" height="120" version="1.1" viewBox="0 0 500 120" xmlns="http://www.w3.org/2000/svg">
<circle cx="50" cy="60" r="47.5" fill="#0c4996"/>
<path d="m49.947 10a50 50 0 0 0-49.947 50 50 50 0 0 0 50 50 50 50 0 0 0 50-50 50 50 0 0 0-50-50 50 50 0 0 0-0.05273 0zm-0.12109 5a45 45 0 0 1 0.17383 0 45 45 0 0 1 18.779 4.1074l-4.2871 0.85742c-4.2735-2.4785-9.2111-3.9648-14.492-3.9648s-10.219 1.4863-14.492 3.9648l-4.2891-0.85938a45 45 0 0 1 18.607-4.1055zm-39.99 24.709c0.072291 0.07948 0.1382 0.16358 0.21484 0.24024 1.0338 1.0335 2.3518 1.5469 3.7109 1.7891l-8.4043 12.607a45 45 0 0 1 4.4785-14.637zm80.33 0a45 45 0 0 1 4.4766 14.635l-8.4043-12.605c1.3591-0.24213 2.6772-0.75552 3.7109-1.7891 0.07695-0.07697 0.14423-0.16042 0.2168-0.24024zm-73.336 22.666-3.4707 10.41c-1.208 3.6222 0.8037 7.6471 4.4258 8.8555 3.6222 1.208 7.6471-0.8037 8.8555-4.4258l1.3594-4.0781v21.863c0 2.517 1.3861 4.7516 3.4219 5.9863a45 45 0 0 1-26.123-35.814c0.25494 0.23349 0.52326 0.4556 0.81836 0.65234 3.1772 2.118 7.5888 1.2357 9.707-1.9414l1.0059-1.5078zm66.34 0 1.0059 1.5078c2.1182 3.1771 6.5298 4.0595 9.707 1.9414 0.29589-0.19727 0.5648-0.42009 0.82031-0.6543a45 45 0 0 1-26.121 35.814c2.0337-1.2352 3.418-3.4689 3.418-5.9844v-21.863l1.3594 4.0781c1.2084 3.6221 5.2333 5.6338 8.8555 4.4258 3.6221-1.2084 5.6338-5.2333 4.4258-8.8555l-3.4707-10.41zm-42.08 35.85 1.543 6.168a45 45 0 0 1-9.3984-2.6328c0.56642 0.1516 1.1564 0.24023 1.7656 0.24023 2.6411 0 4.9001-1.5735 6.0898-3.7754zm17.82 0c1.1896 2.202 3.4488 3.7754 6.0898 3.7754 0.61067 0 1.2019-0.0899 1.7695-0.24219a45 45 0 0 1-9.4023 2.6348l1.543-6.168z" fill="#fff"/>
<path d="m50 20c-5.1149 0-9.8689 1.5398-13.83 4.1758l-10.582-2.1172a3.0003 3.0003 0 0 0-0.57812-0.05859 3.0003 3.0003 0 0 0-2.1309 0.87891l-10 10a3 3 0 0 0 0 4.2422 3 3 0 0 0 4.2422 0l8.8652-8.8652 4.6523 0.92969c-2.4188 2.9578-4.1688 6.4809-5.0312 10.34l-6.7207 2.6895a3.0003 3.0003 0 0 0-1.3828 1.1211l-10 15a3 3 0 0 0 0.83203 4.1602 3 3 0 0 0 4.1602-0.83203l9.4824-14.225 3.0527-1.2207c0.14496 3.0203 0.82533 5.8987 1.9492 8.5449l-3.7812 2.8359a3.0003 3.0003 0 0 0-1.0449 1.4512l-5 15a3 3 0 0 0 1.8965 3.7949 3 3 0 0 0 3.7949-1.8965l4.7031-14.111 2.4512-1.8379c1.422 1.8929 3.1071 3.578 5 5l-2.4004 3.1992a3.0003 3.0003 0 0 0-0.59961 1.8008v25a3 3 0 0 0 3 3 3 3 0 0 0 3-3v-24l0.30664-0.4082 8.7832 35.137a3.0003 3.0003 0 0 0 5.8203 0l8.7832-35.137 0.30664 0.4082v24a3 3 0 0 0 3 3 3 3 0 0 0 3-3v-25a3.0003 3.0003 0 0 0-0.59961-1.8008l-2.4004-3.1992c1.8929-1.422 3.578-3.1071 5-5l2.4512 1.8379 4.7031 14.111a3 3 0 0 0 3.7949 1.8965 3 3 0 0 0 1.8965-3.7949l-5-15a3.0003 3.0003 0 0 0-1.0449-1.4512l-3.7812-2.8359c1.1239-2.6462 1.8043-5.5246 1.9492-8.5449l3.0527 1.2207 9.4824 14.225a3 3 0 0 0 4.1602 0.83203 3 3 0 0 0 0.83203-4.1602l-10-15a3.0003 3.0003 0 0 0-1.3828-1.1211l-6.7207-2.6895c-0.8624-3.8589-2.6124-7.382-5.0312-10.34l4.6523-0.92969 8.8652 8.8652a3 3 0 0 0 4.2422 0 3 3 0 0 0 0-4.2422l-10-10a3.0003 3.0003 0 0 0-2.0957-0.87891 3.0003 3.0003 0 0 0-0.61328 0.05859l-10.582 2.1172c-3.9612-2.636-8.7152-4.1758-13.83-4.1758z" fill="#1d83dc"/>
<path d="m108 30v60c0 6.5328 5.4672 12 12 12s12-5.4672 12-12v-11.789c4.5196 4.0984 11.48 4.0984 16 0v11.789c0 6.5328 5.4672 12 12 12 4.6912 0 8.0376-3.2257 10-7.2344 1.9623 4.0088 5.3088 7.2344 10 7.2344s8.0376-3.2257 10-7.2344c1.9623 4.0088 5.3088 7.2344 10 7.2344s8.0376-3.2257 10-7.2344c1.9623 4.0088 5.3088 7.2344 10 7.2344s8.0376-3.2257 10-7.2344c1.9623 4.0088 5.3088 7.2344 10 7.2344 4.7336 0 8.1068-3.2773 10.047-7.3436 0.68956 1.4896 0.78344 3.2911 1.9453 4.3124 2.3864 2.098 5.248 2.9766 8.008 2.9766s5.6212-0.8786 8.008-2.9766c2.3864-2.098 3.9454-5.5544 3.9922-8.8592 2.5e-4 -0.0364 2.5e-4 -0.0728 0-0.1092 0-9.9284 0.4488-19.401 1.8828-23.703 0.75592-2.2678 1.428-3.0065 1.9219-3.3906 0.59064-0.45936 1.106-0.90624 4.1952-0.90624 4.6912 0 8.0376-3.2257 10-7.2344 1.0104 2.064 2.166 3.5547 4.1092 4.7656-0.66672 1.2879-1.7118 2.398-2.2188 3.75-2.6246 6.9988-3.8906 15.74-3.8906 26.719 6.5e-4 6.532 5.468 11.999 12 12h19.984c1.009 2e-3 2.0183-0.124 3-0.3748 8e-3 -3e-3 0.0157-5e-3 0.0236-8e-3 0.4326-0.112 0.76336-0.226 1.0234-0.3204 0.31128-0.1112 0.5824-0.2176 0.79688-0.3124l0.0547-0.024c0.29172-0.1288 0.57792-0.2744 0.85156-0.42184 0.0366-0.018 0.073-0.0363 0.10936-0.0548 0.58428-0.3272 1.1356-0.706 1.6484-1.1172 0.51032-0.40684 0.99468-0.8524 1.4375-1.3438 8e-3 -0.01331 0.0158-0.02664 0.0236-0.04 1.3467-1.5112 2.2916-3.339 2.7422-5.3124v-8e-3c0.0212-0.0924 0.0204-0.1884 0.0392-0.2812 0.7174 1.2193 1.1771 2.4974 2.2812 3.6016 4.0328 4.0328 9.1372 5.1932 13.094 5.6328 3.9242 0.43764 7.9116 0.3828 12.891 0.3828 4.7336 0 8.1068-3.2773 10.047-7.3436 0.68956 1.4896 0.78344 3.2911 1.9453 4.3124 2.3864 2.098 5.248 2.9766 8.008 2.9766s5.6212-0.8786 8.008-2.9766c1.1618-1.0214 1.2558-2.8229 1.9453-4.3124 1.9402 4.0664 5.3132 7.3436 10.047 7.3436 4.6912 0 8.0376-3.2257 10-7.2344 1.9623 4.0088 5.3088 7.2344 10 7.2344s8.0376-3.2257 10-7.2344c1.9623 4.0088 5.3088 7.2344 10 7.2344 5.8812 0 10.355-4.662 11.297-10.312 0.77888 1.4682 1.4018 2.9799 2.7188 4.2968 4.0328 4.0328 9.1372 5.1932 13.094 5.6328 3.9246 0.436 7.9116 0.3828 12.891 0.3828 6.5328 0 12-5.4672 12-12 0-4.6912-3.2257-8.0376-7.2344-10 4.008-1.9623 7.234-5.3092 7.2344-10 0-6.9908-1.7476-13.411-5.5236-18.445-3.8776-5.17-9.8632-8.5548-16.476-8.5548s-12.599 3.3846-16.476 8.5548c-2.0197 2.693-3.3718 5.8176-4.2736 9.1796-0.19228-0.67216-0.14448-1.3631-0.3672-2.0312-1.765-5.2952-4.8016-10.728-9.9532-14.734-5.2064-4.0496-11.861-5.9688-18.93-5.9688-6.532 7.2e-4 -11.999 5.468-12 12v6.828c-1.8334-4.6728-4.5336-9.3308-9.0704-12.859-2.1891-1.7026-4.5388-2.8607-6.9296-3.6953v-10.274c0-6.5328-5.4672-12-12-12s-12 5.4672-12 12v11.359c-2.1478-1.9824-4.9084-3.3594-8-3.3594-4.9788 0-8.9648-0.054-12.891 0.3828-3.9568 0.43964-9.0612 1.6002-13.094 5.6328-4.0328 4.0328-5.1932 9.1372-5.6328 13.094-0.0168 0.1524-1.7e-4 0.3476-0.0156 0.5-1.8114-4.9376-4.6448-9.9128-9.4376-13.641-5.2068-4.0504-11.861-5.9688-18.93-5.9688-4.6912 0-8.0376 3.2257-10 7.2344-1.9623-4.0088-5.3088-7.2344-10-7.2344-4.6844 0-8.9964 1.1832-13.016 2.9297-2.0247-1.5557-4.2856-2.9297-6.9844-2.9297-4.6912 0-8.0376 3.2257-10 7.2344-0.19936-0.40728-0.27296-0.85332-0.51564-1.2344 1.1802-1.8532 2.5156-3.6818 2.5156-6 0-6.5328-5.4672-12-12-12s-12 5.4672-12 12c0 2.3182 1.3354 4.1468 2.5156 6-1.1802 1.8532-2.5156 3.6818-2.5156 6v6.828c-1.8334-4.6728-4.5336-9.3308-9.0704-12.859-5.2064-4.0496-11.861-5.9688-18.93-5.9688-4.6908 5.2e-4 -8.0376 3.2262-10 7.2344-0.1994-0.40728-0.27296-0.85332-0.51564-1.2344 1.1802-1.8532 2.5156-3.6818 2.5156-6 0-6.5328-5.4672-12-12-12-3.1728 0-6.0452 1.3703-8.2108 3.4453-0.3112-5.43-4.4208-10.036-9.0312-11.125-4.7864-1.13-10.94 1.2105-13.492 6.3124l-9.2656 18.531-9.2656-18.531c-1.9993-3.9985-6.1004-6.5716-11.632-6.6466s-11.104 5.4221-11.104 12.014zm260 28.641v22.719c-2.1478-1.9824-4.9084-3.3594-8-3.3594-3.8006 0-5.8828-0.0916-7.8124-0.1876-0.0959-1.9291-0.18748-4.0116-0.18748-7.8124 0-3.8009 0.0916-5.8832 0.18748-7.8124 1.9292-0.096 4.0116-0.1876 7.8124-0.1876 3.0916 0 5.852-1.3769 8-3.3594z" fill="#fff"/>
<path d="m120.05 26c-2.2304-0.030272-4.0548 1.7694-4.0548 4v60c0 2.2091 1.7909 4 4 4s4-1.7909 4-4v-43.056l12.422 24.844c1.4742 2.9486 5.682 2.9486 7.1564 0l12.422-24.844v43.056c0 2.2091 1.7909 4 4 4s4-1.7909 4-4v-60c-6.9e-4 -4.2204-5.69-5.5636-7.578-1.7891l-16.422 32.844-16.422-32.844c-0.66884-1.3377-2.028-2.1905-3.5234-2.2109zm259.94 0c-2.2091 0-4 1.7909-4 4v60c0.0744 5.2584 7.9256 5.2584 8 0v-34.859c1.741 0.45076 3.9679 0.56528 5.1092 1.4531 2.0353 1.583 3.5124 3.9278 4.5936 7.172 2.1627 6.488 2.2969 16.234 2.2969 26.234 0 2.2091 1.7909 4 4 4s4-1.7909 4-4c0-10 0.1342-20.254-2.7031-28.766-1.4186-4.256-3.6916-8.1612-7.2812-10.953-2.668-2.0751-6.1624-3.1598-10.016-3.7188v-16.562c0-2.2091-1.7909-4-4-4zm-200 8c-2.2091 0-4 1.7909-4 4s1.7909 4 4 4 4-1.7909 4-4-1.7909-4-4-4zm60 0c-2.2091 0-4 1.7909-4 4s1.7909 4 4 4 4-1.7909 4-4-1.7909-4-4-4zm-60 12c-2.2091 0-4 1.7909-4 4v40c0 2.2091 1.7909 4 4 4s4-1.7909 4-4v-40c0-2.2091-1.7909-4-4-4zm20 0c-2.209 2.4e-4 -3.9998 1.791-4 4v40c0 2.2091 1.7909 4 4 4s4-1.7909 4-4v-34.859c1.741 0.45076 3.9679 0.56528 5.1092 1.4531 2.0353 1.583 3.5124 3.9278 4.5936 7.172 2.1627 6.488 2.2969 16.234 2.2969 26.234 0 2.2091 1.7909 4 4 4s4-1.7909 4-4c0-10 0.1342-20.254-2.7031-28.766-1.4186-4.256-3.6916-8.1612-7.2812-10.953s-8.3488-4.2812-14.016-4.2812zm40 0c-2.2091 0-4 1.7909-4 4v40c0 2.2091 1.7909 4 4 4s4-1.7909 4-4v-40c0-2.2091-1.7909-4-4-4zm20 0c-2.2091 0-4 1.7909-4 4v40c0.0744 5.2584 7.9256 5.2584 8 0 0-10 0.1342-19.746 2.2969-26.234 1.0814-3.244 2.5584-5.5888 4.5936-7.172s4.776-2.5938 9.1092-2.5938c2.2091 0 4-1.7909 4-4s-1.7909-4-4-4c-5.6668 0-10.426 1.4892-14.016 4.2812-0.79952 0.62188-1.3108 1.4713-1.9844 2.1953v-2.4766c0-2.2091-1.7909-4-4-4zm40 0c-2.2091 0-4 1.7909-4 4s1.7909 4 4 4c4.226 0 6.8636 1.0154 8.8828 2.5312-2.0627 0.356-4.0748 1.1142-5.4764 2.6094-1.6876 1.8-2.9577 4.1112-4.0236 6.9532-2.1315 5.684-3.3828 13.573-3.3828 23.906 2.2e-4 2.209 1.791 3.9998 4 4h20c0.33728 6.4e-4 0.67328-0.0412 1-0.1248 0.10816-0.028 0.215-0.0632 0.32032-0.1016 0.10588-0.036 0.21012-0.0788 0.31252-0.1248 0.1036-0.0452 0.20528-0.0948 0.30468-0.1484 0.19504-0.1092 0.3806-0.2348 0.55468-0.3748 0.17676-0.1396 0.3414-0.2936 0.4922-0.46092 0.44956-0.50448 0.76404-1.1146 0.91408-1.7734 0.0498-0.2184 0.0812-0.44048 0.0938-0.66408 5e-3 -0.0756 7e-3 -0.1512 8e-3 -0.2264 0-10 0.1342-20.254-2.7031-28.766-1.4186-4.256-3.6916-8.1612-7.2812-10.953-3.5899-2.7928-8.3492-4.282-14.016-4.282zm60 0c-5 0-8.8076-0.02-12.008 0.336-3.2004 0.3556-6.1276 1.1432-8.3204 3.336s-2.9804 5.12-3.3359 8.3204c-0.3556 3.2003-0.33592 7.0076-0.33592 12.008s-0.0196 8.8076 0.33592 12.008c0.3556 3.2004 1.1431 6.1276 3.3359 8.3204s5.12 2.9804 8.3204 3.336 7.008 0.336 12.008 0.336c2.2091 0 4-1.7909 4-4s-1.7909-4-4-4c-5 0-8.6924-0.02-11.117-0.2892s-3.2475-0.73184-3.5547-1.039-0.76964-1.13-1.039-3.5547c-0.2694-2.4245-0.28908-6.1172-0.28908-11.117s0.0196-8.6924 0.28908-11.117c0.2694-2.4246 0.73188-3.2475 1.039-3.5547 0.3072-0.3072 1.13-0.76964 3.5547-1.039 2.4246-0.2696 6.1172-0.2892 11.117-0.2892 2.2091 0 4-1.7909 4-4s-1.7909-4-4-4zm60 0c-2.209 2.4e-4 -3.9998 1.791-4 4v40c0 2.2091 1.7909 4 4 4s4-1.7909 4-4v-34.859c1.741 0.45076 3.9679 0.56528 5.1092 1.4531 2.0353 1.583 3.5124 3.9278 4.5936 7.172 2.1627 6.488 2.2969 16.234 2.2969 26.234 0 2.2091 1.7909 4 4 4s4-1.7909 4-4c0-10 0.1342-20.254-2.7031-28.766-1.4186-4.256-3.6916-8.1612-7.2812-10.953s-8.3488-4.2812-14.016-4.2812zm50 5c-3.8333 0-7.5632 1.9982-10.078 5.3516s-3.9219 7.9816-3.9219 13.648c0 5-0.0196 8.8076 0.33592 12.008 0.3556 3.2004 1.1431 6.1276 3.3359 8.3204s5.12 2.9804 8.3204 3.336 7.008 0.336 12.008 0.336c2.2091 0 4-1.7909 4-4s-1.7909-4-4-4c-5 0-8.6924-0.02-11.117-0.2892s-3.2475-0.73184-3.5547-1.039-0.76964-1.13-1.039-3.5547c-0.17248-1.5523-0.15968-4.514-0.18748-7.1172h15.898c2.209-2.4e-4 3.9998-1.791 4-4 0-5.6668-1.4069-10.295-3.9219-13.648s-6.2448-5.3516-10.078-5.3516zm0 8c1.1667 0 2.4369 0.50176 3.6719 2.1484 0.6768 0.90244 0.83928 3.1748 1.2734 4.8516h-9.8908c0.43416-1.6768 0.59664-3.9491 1.2734-4.8516 1.235-1.6467 2.5052-2.1484 3.6719-2.1484zm-160 5c-0.0833 0 0.0938-0.0904 0.75 0.60936 0.6562 0.69996 1.5736 2.1389 2.3828 4.2968 1.3115 3.4974 1.9614 10.052 2.3203 17.094h-10.906c0.35896-7.0412 1.0088-13.596 2.3203-17.094 0.80924-2.158 1.7266-3.5969 2.3828-4.2968 0.6562-0.69992 0.83332-0.60936 0.75-0.60936z" fill="#1d83dc"/>
</svg>
